<svg id="Layer_2" data-name="Layer 2" xmlns="http://www.w3.org/2000/svg" xmlns:xlink="http://www.w3.org/1999/xlink" viewBox="0 0.4902750253677368 109.63374328613281 44.63834893703461" width="447" height="182" style="">
  <defs>
    <style>
      .cls-1 {
        fill: #fff;
      }

      .cls-2 {
        fill: url(#linear-gradient);
      }
    </style>
    <linearGradient id="linear-gradient" x1="-567.86" y1="21.99" x2="-462.44" y2="21.99" gradientTransform="translate(567.86)" gradientUnits="userSpaceOnUse">
      <stop offset="0" stop-color="#02f3c9"/>
      <stop offset="1" stop-color="#0f6eb0"/>
    </linearGradient>
  </defs>
  <g id="Layer_1-2" data-name="Layer 1">
    <g>
      <g>
        <path class="cls-1" d="M173.62,43.98v-7.91h.58v7.91h-.58Z"/>
        <path class="cls-1" d="M176.67,43.98v-7.91h.48l3.67,6.34h-.26l3.66-6.34h.47v7.91s-.55,0-.55,0v-7.04s.15,0,.15,0l-3.47,5.99h-.28l-3.48-5.99h.17v7.04h-.56Z"/>
        <path class="cls-1" d="M187.19,43.98v-7.91h2.84c.66,0,1.23.11,1.71.32.47.21.84.51,1.1.91.26.39.38.88.38,1.44s-.13,1.02-.38,1.42c-.26.4-.62.7-1.1.92s-1.04.32-1.71.32h-2.52l.26-.27v2.86h-.58ZM187.77,41.16l-.26-.28h2.52c.85,0,1.5-.19,1.94-.56.44-.37.66-.9.66-1.58s-.22-1.21-.66-1.59c-.44-.37-1.09-.56-1.94-.56h-2.52l.26-.28v4.85Z"/>
        <path class="cls-1" d="M193.16,43.98l3.64-7.91h.58l3.64,7.91h-.62l-3.43-7.55h.25l-3.42,7.55h-.62ZM194.49,41.76l.19-.48h4.73l.19.48h-5.12Z"/>
        <path class="cls-1" d="M205.39,44.04c-.59,0-1.13-.1-1.63-.3s-.94-.48-1.3-.84-.65-.79-.86-1.27-.3-1.02-.3-1.6.1-1.11.3-1.6.49-.91.86-1.27.81-.64,1.3-.84,1.04-.3,1.63-.3,1.08.09,1.57.27c.48.18.9.46,1.25.83l-.36.37c-.34-.33-.71-.57-1.12-.72s-.84-.22-1.3-.22c-.5,0-.97.09-1.41.26-.43.17-.81.42-1.13.74-.32.32-.57.69-.75,1.11-.18.42-.27.88-.27,1.38s.09.96.27,1.38c.18.42.43.79.75,1.11.32.32.7.56,1.13.74.43.17.9.26,1.41.26.46,0,.89-.07,1.3-.22s.79-.39,1.12-.73l.36.37c-.35.37-.76.65-1.25.83-.49.19-1.01.28-1.57.28Z"/>
        <path class="cls-1" d="M211.11,43.98v-7.39h-2.85v-.52h6.27v.52h-2.85v7.39h-.58Z"/>
        <path class="cls-1" d="M221.39,44.04c-.98,0-1.75-.29-2.31-.86s-.85-1.42-.85-2.55v-4.55h.58v4.53c0,.99.23,1.72.68,2.19.45.47,1.09.71,1.92.71s1.46-.24,1.91-.71c.45-.47.68-1.2.68-2.19v-4.53h.58v4.55c0,1.13-.28,1.98-.85,2.55s-1.34.86-2.33.86Z"/>
        <path class="cls-1" d="M226.97,43.98v-7.91h.48l5.64,7.2h-.26v-7.2h.58v7.91h-.47l-5.65-7.2h.26v7.2h-.58Z"/>
        <path class="cls-1" d="M235.88,43.98v-7.91h.58v7.39h4.55v.52h-5.13Z"/>
        <path class="cls-1" d="M242.21,43.98v-7.91h5.29v.52h-4.71v6.87h4.88v.52h-5.46ZM242.72,40.22v-.51h4.28v.51h-4.28Z"/>
        <path class="cls-1" d="M248.16,43.98l3.64-7.91h.58l3.64,7.91h-.62l-3.43-7.55h.25l-3.42,7.55h-.62ZM249.5,41.76l.19-.48h4.73l.19.48h-5.12Z"/>
        <path class="cls-1" d="M259.25,44.04c-.59,0-1.14-.1-1.67-.3-.52-.2-.93-.46-1.21-.77l.26-.43c.27.28.64.51,1.11.71s.97.29,1.5.29.96-.07,1.29-.21c.33-.14.58-.33.74-.56.16-.23.24-.49.24-.78,0-.34-.09-.61-.27-.81-.18-.2-.42-.37-.71-.49-.29-.12-.61-.22-.96-.3-.35-.08-.7-.17-1.05-.27-.35-.09-.68-.22-.97-.37s-.53-.36-.71-.62c-.18-.26-.27-.6-.27-1.01,0-.38.1-.72.29-1.04.2-.32.5-.57.92-.77.41-.19.95-.29,1.59-.29.44,0,.87.06,1.29.19s.79.3,1.09.52l-.21.46c-.33-.23-.69-.39-1.07-.5-.38-.11-.75-.16-1.1-.16-.5,0-.92.07-1.25.21s-.58.33-.73.57c-.16.24-.24.5-.24.8,0,.34.09.61.27.81.18.2.41.37.71.49.29.12.62.22.97.3.35.08.7.17,1.05.27.35.09.67.22.96.37.29.15.53.36.71.61.18.26.27.59.27.99,0,.37-.1.71-.3,1.03-.2.32-.51.58-.93.77s-.95.29-1.61.29Z"/>
        <path class="cls-1" d="M263.77,43.98v-7.91h.58v7.91h-.58ZM264.28,40.22v-.51h5.42v.51h-5.42ZM269.63,43.98v-7.91h.58v7.91h-.58Z"/>
        <path class="cls-1" d="M272.68,43.98v-7.91h5.29v.52h-4.71v6.87h4.88v.52h-5.46ZM273.19,40.22v-.51h4.28v.51h-4.28Z"/>
        <path class="cls-1" d="M279.96,43.98v-7.91h3.13c.84,0,1.57.17,2.2.51s1.12.81,1.47,1.4c.35.59.53,1.28.53,2.04s-.18,1.45-.53,2.04c-.35.59-.84,1.06-1.47,1.4s-1.37.51-2.2.51h-3.13ZM280.53,43.46h2.51c.75,0,1.39-.15,1.94-.44.55-.29.98-.7,1.28-1.21.3-.52.45-1.11.45-1.78s-.15-1.26-.45-1.78c-.3-.52-.73-.92-1.28-1.21-.55-.29-1.2-.44-1.94-.44h-2.51v6.87Z"/>
      </g>
      <path class="cls-1" d="M135.76,0C126.65,0,118.62,3.28,118.62,12.57s8.03,12.56,17.14,12.56,17.14-3.28,17.14-12.56S144.87,0,135.76,0ZM135.76,22.76c-4.37,0-8.24-2.66-8.24-10.19s3.87-10.2,8.24-10.2,8.24,2.67,8.24,10.2-3.86,10.19-8.24,10.19Z"/>
      <polygon class="cls-1" points="251.06 2.39 252.48 0 226.64 0 226.64 0 226.64 0 226.64 11.37 226.64 13.76 226.64 25.13 235.54 25.13 235.54 25.13 252.48 25.13 251.06 22.74 235.54 22.74 235.54 13.76 248.14 13.76 248.14 11.37 235.54 11.37 235.54 2.39 251.06 2.39"/>
      <path class="cls-1" d="M175.65.01h0s-19.21-.01-19.21-.01v25.12h8.9v-8.33h10.31c8.09-.17,12.39-2.42,12.39-8.4S183.74.17,175.65.01ZM171.65,14.41h-6.3V2.39h6.3c3.98,0,7.49,1.57,7.49,6.01s-3.51,6-7.49,6Z"/>
      <path class="cls-1" d="M287.24,8.4c0-5.97-4.3-8.23-12.39-8.39h0s-18.54-.01-18.54-.01v25.12h8.9v-8.33h8.75l5.05,8.33h8.9l-5.72-9.44c3.32-1.21,5.05-3.5,5.05-7.28ZM270.84,14.41h-5.63V2.39h5.63c3.98,0,7.49,1.57,7.49,6.01s-3.51,6-7.49,6Z"/>
      <path class="cls-1" d="M220.15,13.13c-1.84-1.34-4.3-1.76-6.01-1.76h-7.46c-3.29,0-6.21-1.17-6.21-4.49s2.92-4.49,6.21-4.49h12.04l1.42-2.39h-20.05c-3.05,0-8.52,1.36-8.52,6.88,0,2.44,1.07,4.06,2.52,5.12,1.84,1.34,4.3,1.76,6,1.76h7.46c3.29,0,6.21,1.17,6.21,4.49s-2.92,4.49-6.21,4.49h-12.04l-1.42,2.39h20.05c3.05,0,8.52-1.36,8.52-6.88,0-2.44-1.07-4.06-2.52-5.12Z"/>
      <path class="cls-1" d="M312.51,0h-9.73.01s-6.47,14.5-6.47,14.5h-.02v.06l-4.71,10.55h1.56s1.18.01,1.18.01l2.76-6.17,6.1-13.66c.37-.85,1.58-.85,1.96,0l6.09,13.66,2.75,6.17h3.71s6.01-.01,6.01-.01L312.51,0Z"/>
      <path class="cls-2" d="M61.11,11.81c1.27-2.57-.61-5.58-3.48-5.58h-14.57l-9.3,18.91-6.49,13.18c-1.27,2.57.61,5.58,3.48,5.58h14.57l2.74-5.58,6.49-13.18,6.55-13.33ZM84.45,16.98l5.6-11.39C91.32,3.01,89.44,0,86.57,0h-14.86l-9.3,18.91-9.54,19.41c-1.27,2.57.61,5.58,3.48,5.58h14.85l2.74-5.58,8.96-18.23,1.53-3.12ZM25.84,25.07H9.33c-.83,0-1.58.47-1.95,1.22L.23,40.85c-.71,1.44.34,3.13,1.95,3.13h16.5c.83,0,1.58-.47,1.95-1.22l7.16-14.57c.71-1.44-.34-3.13-1.95-3.13ZM103.25,25.07h-16.5c-.83,0-1.58.47-1.95,1.22l-7.16,14.57c-.71,1.44.34,3.13,1.95,3.13h16.5c.83,0,1.58-.47,1.95-1.22l7.16-14.57c.71-1.44-.34-3.13-1.95-3.13Z"/>
    </g>
  </g>
</svg>